<?xml version="1.0" standalone="no"?>
<!DOCTYPE svg PUBLIC "-//W3C//DTD SVG 20010904//EN"
 "http://www.w3.org/TR/2001/REC-SVG-20010904/DTD/svg10.dtd">
<svg version="1.0" xmlns="http://www.w3.org/2000/svg"
 width="600.000000pt" height="600.000000pt" viewBox="0 0 600.000000 600.000000"
 preserveAspectRatio="xMidYMid meet">
<metadata>
Created by potrace 1.11, written by Peter Selinger 2001-2013
</metadata>
<g transform="translate(0.000000,600.000000) scale(0.100000,-0.100000)"
fill="#000000" stroke="none">
<path d="M0 3000 l0 -2400 3000 0 3000 0 0 2400 0 2400 -3000 0 -3000 0 0
-2400z m2240 2020 c0 -5 -7 -7 -15 -4 -8 4 -15 8 -15 10 0 2 7 4 15 4 8 0 15
-4 15 -10z m1170 -84 c-16 -16 -11 -36 9 -36 21 0 31 19 31 60 0 26 4 28 42
32 35 3 47 0 66 -19 13 -13 31 -23 40 -23 14 0 14 -2 3 -9 -7 -5 -11 -13 -7
-19 11 -18 43 -20 75 -4 30 14 35 13 75 -8 26 -13 58 -41 77 -69 70 -100 122
-141 179 -141 44 0 37 17 -20 41 -31 13 -63 38 -86 66 -43 52 -37 70 9 26 17
-17 49 -38 69 -46 20 -9 41 -24 47 -35 6 -11 21 -22 34 -26 26 -6 53 -51 37
-61 -20 -12 -9 -26 18 -23 26 3 27 1 27 -39 0 -23 3 -44 7 -48 4 -4 3 -18 -2
-31 -9 -24 3 -44 15 -24 12 20 21 9 23 -27 2 -68 11 -135 17 -142 4 -3 12 2
19 12 28 38 34 8 14 -69 -11 -39 -10 -47 3 -57 23 -18 29 -55 13 -85 -8 -15
-14 -40 -14 -55 0 -15 -7 -42 -17 -60 -38 -74 -33 -157 9 -157 21 0 21 2 8
-260 -5 -102 -12 -195 -16 -208 -11 -38 23 -15 37 25 17 53 18 36 3 -44 -16
-86 -32 -128 -73 -187 -36 -52 -36 -50 -15 -71 15 -14 15 -27 6 -103 -6 -48
-14 -123 -18 -167 -4 -49 -12 -87 -21 -97 -12 -13 -18 -66 -25 -235 l-10 -218
-52 -105 c-44 -88 -108 -188 -280 -435 -12 -16 -23 -32 -27 -35 -3 -3 -18 -23
-34 -45 -37 -50 -201 -253 -294 -364 -39 -47 -71 -88 -71 -93 0 -4 -4 -8 -10
-8 -5 0 -10 13 -10 28 0 16 -7 51 -15 78 -9 27 -22 85 -30 129 -28 150 -40
190 -69 228 -15 20 -37 37 -47 37 -11 0 -41 14 -67 31 -161 106 -183 111 -322
90 -108 -17 -184 -48 -290 -119 -75 -51 -90 -66 -124 -127 -25 -45 -40 -88
-43 -120 -3 -29 -13 -57 -23 -67 -19 -18 -16 -47 7 -108 6 -14 14 -56 18 -95
4 -38 13 -77 20 -85 15 -17 31 -70 21 -70 -4 0 -32 13 -64 29 -122 62 -446
435 -632 729 -34 54 -37 62 -20 62 23 0 34 30 25 70 -5 22 -3 32 9 36 24 9 19
51 -19 160 -19 54 -35 116 -35 137 0 21 -22 105 -50 187 -44 130 -50 158 -50
230 0 51 -5 92 -14 108 -8 15 -19 65 -25 111 -6 45 -17 97 -26 114 -8 16 -15
36 -15 42 0 7 -6 15 -13 18 -9 3 -16 29 -20 64 -3 32 -13 77 -21 100 -13 36
-13 43 0 54 22 18 17 51 -18 104 -50 74 -57 87 -63 127 -4 24 -21 53 -51 87
-25 28 -41 51 -35 51 22 0 10 34 -23 64 -31 28 -38 44 -65 157 -33 134 -36
159 -22 159 5 0 13 29 16 65 7 61 16 78 30 55 9 -15 25 -12 25 5 0 8 5 24 12
34 9 15 9 25 0 46 -19 41 -14 67 19 105 17 19 58 68 92 108 33 39 65 72 72 72
15 0 116 40 129 51 5 5 4 15 -4 24 -10 13 -9 15 8 15 34 0 128 39 147 60 28
30 10 36 -38 12 -42 -21 -149 -53 -155 -47 -2 2 17 33 42 68 l46 64 58 5 c71
7 144 43 196 96 45 46 96 61 104 30 6 -24 17 -23 37 5 14 20 26 23 133 28 64
3 129 9 145 14 21 6 27 4 27 -9 0 -8 17 -27 37 -41 29 -19 50 -25 94 -25 40 0
61 -5 70 -16 7 -9 23 -20 36 -25 16 -6 23 -17 23 -33 0 -51 77 -61 146 -21 30
18 51 23 72 19 16 -3 40 -1 52 6 29 15 34 7 50 -73 11 -55 10 -62 -6 -74 -24
-17 -98 -17 -113 1 -7 8 -15 30 -18 50 -8 53 -23 54 -23 2 0 -37 6 -51 34 -80
39 -42 72 -46 129 -17 29 15 37 16 37 5 0 -8 -9 -23 -20 -34 -28 -28 -25 -40
10 -40 38 0 60 40 60 108 0 30 5 54 14 61 11 9 15 9 18 -1 4 -11 8 -10 21 0
14 12 20 11 38 -1 16 -12 28 -13 48 -6 31 12 41 26 41 61 0 21 11 34 54 63 30
20 60 42 66 50 17 21 30 19 30 -5 0 -11 2 -20 5 -20 13 0 135 134 136 149 0 9
7 -2 15 -23 10 -27 11 -43 4 -50z m-970 57 c0 -2 -5 -13 -10 -24 -12 -21 -68
-26 -101 -9 -22 12 -26 35 -4 26 8 -3 22 -9 30 -12 10 -4 15 0 15 13 0 16 6
18 35 15 19 -2 35 -6 35 -9z m-276 0 c7 -7 -66 -33 -94 -33 -8 0 -1 9 15 19
31 20 66 26 79 14z m-384 -72 c0 -5 -12 -18 -27 -29 -33 -23 -163 -75 -170
-69 -7 8 20 50 52 79 25 23 39 28 88 28 31 0 57 -4 57 -9z m874 -58 l25 -44
-32 -19 c-53 -32 -117 -22 -117 18 0 7 11 28 25 46 14 18 25 37 25 43 0 6 11
8 25 5 16 -3 33 -19 49 -49z m210 -60 c9 -58 7 -123 -4 -123 -5 0 -10 22 -10
49 0 27 -3 63 -6 80 -4 18 -2 31 3 31 6 0 13 -17 17 -37z m-1396 -200 c-10 -2
-26 -2 -35 0 -10 3 -2 5 17 5 19 0 27 -2 18 -5z m2724 -55 c-7 -7 -12 -8 -12
-2 0 6 3 14 7 17 3 4 9 5 12 2 2 -3 -1 -11 -7 -17z m-3397 -1208 c89 -84 129
-109 179 -117 17 -2 50 -15 73 -29 46 -26 73 -30 91 -12 20 20 49 -17 56 -75
4 -29 21 -117 37 -197 73 -347 109 -534 109 -559 0 -15 4 -31 9 -36 5 -6 14
-54 21 -109 10 -81 9 -100 -2 -107 -24 -16 -37 -9 -84 46 -35 41 -58 81 -86
155 -20 55 -44 113 -52 128 -8 15 -43 86 -76 157 -55 117 -135 263 -198 364
-12 20 -32 54 -43 76 -19 36 -70 114 -91 140 -40 49 -98 168 -98 200 0 31 20
55 46 55 17 0 50 -24 109 -80z m4033 -50 c2 -52 -2 -77 -23 -126 -35 -82 -151
-242 -261 -362 -127 -137 -156 -171 -193 -224 -36 -54 -56 -62 -47 -20 4 15
12 69 20 120 10 70 19 98 35 113 11 11 21 26 21 33 0 7 18 21 41 31 22 10 49
31 60 47 18 25 19 29 4 34 -17 7 -79 1 -106 -10 -13 -6 -15 -1 -11 24 4 30 18
36 74 31 21 -2 34 19 18 29 -17 11 -8 23 130 170 126 135 183 182 215 178 17
-3 20 -11 23 -68z m-1908 -1543 c97 -33 197 -127 211 -199 4 -24 8 -104 8
-178 0 -149 -8 -177 -51 -167 -13 4 -36 0 -52 -8 -16 -8 -39 -12 -52 -9 -39
10 -74 -20 -74 -62 0 -31 -2 -34 -19 -24 -29 15 -48 12 -69 -10 -16 -18 -21
-19 -31 -6 -6 8 -23 17 -38 21 -14 3 -32 13 -40 20 -18 18 -47 19 -73 3 -16
-11 -23 -8 -48 15 -15 15 -35 27 -43 27 -19 0 -68 63 -95 121 -26 56 -38 148
-29 222 6 48 14 63 54 106 25 27 58 53 73 56 14 4 34 15 44 26 9 10 28 19 42
19 13 0 36 10 51 23 24 20 35 22 111 19 47 -2 101 -9 120 -15z m905 -527 c36
-172 66 -282 118 -437 l44 -131 -291 4 c-540 8 -816 16 -816 24 0 4 30 11 68
14 134 13 172 25 213 66 22 21 39 44 39 52 0 16 84 108 99 108 13 0 31 65 31
115 0 42 3 45 214 289 59 68 176 214 215 268 l26 36 7 -141 c4 -93 15 -185 33
-267z m-1719 -95 c91 -83 149 -123 217 -147 67 -24 69 -26 91 -79 29 -73 69
-122 134 -165 28 -19 52 -37 52 -39 0 -3 -33 -3 -72 -1 -40 2 -153 4 -250 5
l-178 1 0 113 c0 99 -20 246 -46 335 -3 12 -4 22 -2 22 3 0 27 -20 54 -45z
m601 -441 c-3 -3 -12 -4 -19 -1 -8 3 -5 6 6 6 11 1 17 -2 13 -5z m130 -1 c-20
-2 -52 -2 -70 0 -17 2 0 4 38 4 39 0 53 -2 32 -4z"/>
<path d="M1985 4359 c-27 -4 -54 -14 -60 -22 -5 -7 -34 -17 -64 -20 -63 -8
-127 -38 -125 -60 2 -19 -189 -141 -299 -191 -41 -19 -77 -42 -81 -51 -8 -21
10 -55 29 -55 10 0 15 -10 15 -28 0 -74 60 -71 225 14 72 37 132 70 135 74 3
4 24 17 47 29 23 11 46 27 50 35 13 23 219 87 301 93 47 4 76 11 79 19 4 10
24 12 84 7 l79 -6 0 25 c0 14 -6 31 -14 37 -8 7 -12 21 -9 32 9 35 -22 56
-100 67 -85 12 -222 12 -292 1z"/>
<path d="M3142 4304 c-46 -23 -132 -108 -132 -130 1 -30 134 -57 285 -59 48
-1 112 -10 160 -23 44 -13 144 -29 223 -37 195 -20 282 -45 342 -100 45 -41
69 -49 91 -29 26 23 24 57 -5 91 -13 15 -26 38 -30 49 -11 36 -37 51 -131 74
-80 20 -94 27 -127 63 l-37 41 -183 12 c-130 9 -201 18 -245 33 -35 11 -69 18
-76 15 -7 -2 -29 2 -49 10 -34 14 -38 14 -86 -10z"/>
<path d="M3057 4021 c-29 -8 -37 -36 -37 -134 0 -89 -2 -98 -17 -93 -71 20
-107 26 -126 20 -12 -4 -43 -8 -69 -9 -98 -6 -175 -17 -220 -33 -26 -8 -50
-13 -53 -10 -4 3 -12 43 -20 89 -11 71 -17 86 -41 106 -16 13 -39 23 -51 23
-12 0 -109 -14 -215 -31 -106 -17 -218 -34 -248 -39 -201 -31 -268 -46 -394
-88 -141 -47 -141 -47 -144 -80 -2 -18 15 -89 39 -165 23 -72 54 -181 70 -242
l27 -110 38 3 c20 2 132 27 248 57 116 30 301 72 411 94 110 23 225 47 255 54
l55 12 -1 40 c0 22 -4 67 -8 100 l-7 60 88 37 88 37 115 -8 c63 -5 129 -13
145 -18 l30 -9 -3 -100 c-4 -122 -3 -124 123 -154 50 -12 243 -59 430 -106
187 -46 352 -84 366 -84 15 0 32 6 38 14 6 8 38 112 71 232 32 121 64 235 70
254 19 66 9 85 -67 125 -21 11 -67 37 -102 59 -59 35 -73 39 -150 43 -47 2
-113 10 -146 18 -113 24 -230 36 -403 38 -95 1 -178 0 -185 -2z m403 -136 c30
-2 127 -9 214 -16 l160 -11 84 -47 c75 -41 83 -49 78 -71 -6 -34 -98 -374
-102 -379 -4 -5 -105 19 -481 112 l-293 72 0 179 0 179 143 -7 c78 -4 167 -9
197 -11z m-1033 -176 c13 -78 20 -145 17 -150 -3 -5 -18 -9 -34 -9 -16 0 -41
-5 -57 -11 -15 -7 -59 -17 -98 -24 -64 -11 -180 -35 -385 -80 -41 -8 -109 -24
-150 -34 -41 -10 -76 -17 -78 -16 -3 2 -82 311 -82 319 0 21 319 88 500 106
63 6 156 17 205 25 155 22 137 37 162 -126z"/>
<path d="M3470 3770 c-8 -5 -10 -10 -5 -10 6 0 17 5 25 10 8 5 11 10 5 10 -5
0 -17 -5 -25 -10z"/>
<path d="M3957 3693 c-4 -3 -7 -11 -7 -17 0 -6 5 -5 12 2 6 6 9 14 7 17 -3 3
-9 2 -12 -2z"/>
<path d="M3305 3680 c-3 -5 -1 -10 4 -10 6 0 11 5 11 10 0 6 -2 10 -4 10 -3 0
-8 -4 -11 -10z"/>
<path d="M3931 3594 c0 -11 3 -14 6 -6 3 7 2 16 -1 19 -3 4 -6 -2 -5 -13z"/>
<path d="M3707 3579 c7 -7 15 -10 18 -7 3 3 -2 9 -12 12 -14 6 -15 5 -6 -5z"/>
<path d="M3248 3543 c6 -2 18 -2 25 0 6 3 1 5 -13 5 -14 0 -19 -2 -12 -5z"/>
<path d="M3594 3472 c5 -8 -1 -12 -16 -13 -18 -1 -19 -2 -4 -6 23 -6 43 12 25
22 -8 5 -10 4 -5 -3z"/>
<path d="M3628 3453 c7 -3 16 -2 19 1 4 3 -2 6 -13 5 -11 0 -14 -3 -6 -6z"/>
<path d="M3862 3440 c0 -14 2 -19 5 -12 2 6 2 18 0 25 -3 6 -5 1 -5 -13z"/>
<path d="M2218 3803 c7 -3 16 -2 19 1 4 3 -2 6 -13 5 -11 0 -14 -3 -6 -6z"/>
<path d="M1738 3733 c7 -3 16 -2 19 1 4 3 -2 6 -13 5 -11 0 -14 -3 -6 -6z"/>
<path d="M2411 3654 c0 -11 3 -14 6 -6 3 7 2 16 -1 19 -3 4 -6 -2 -5 -13z"/>
<path d="M2156 3549 c3 -5 -5 -10 -18 -10 -14 -1 -17 -3 -7 -6 8 -2 26 0 39 5
24 9 24 9 2 14 -12 4 -20 2 -16 -3z"/>
<path d="M1651 3504 c0 -11 3 -14 6 -6 3 7 2 16 -1 19 -3 4 -6 -2 -5 -13z"/>
<path d="M1671 3474 c0 -11 3 -14 6 -6 3 7 2 16 -1 19 -3 4 -6 -2 -5 -13z"/>
<path d="M1910 3470 c-8 -5 -10 -10 -5 -10 6 0 17 5 25 10 8 5 11 10 5 10 -5
0 -17 -5 -25 -10z"/>
<path d="M1848 3453 c6 -2 18 -2 25 0 6 3 1 5 -13 5 -14 0 -19 -2 -12 -5z"/>
<path d="M1651 3414 c0 -11 3 -14 6 -6 3 7 2 16 -1 19 -3 4 -6 -2 -5 -13z"/>
<path d="M2777 3304 c-12 -13 -7 -246 8 -364 35 -267 48 -338 81 -428 19 -52
43 -110 54 -127 25 -40 25 -40 -98 -94 -101 -45 -139 -49 -197 -25 -25 10 -41
12 -48 5 -16 -16 1 -41 40 -58 56 -23 144 -13 229 27 38 18 93 43 122 56 29
13 55 30 58 37 2 7 -20 65 -50 128 -30 63 -62 141 -70 174 -18 73 -54 330 -83
600 -6 51 -12 71 -23 73 -9 1 -19 0 -23 -4z"/>
<path d="M885 3162 c-26 -6 -35 -20 -35 -56 0 -38 40 -108 60 -103 15 3 16 15
4 56 l-7 23 29 -18 c16 -10 48 -35 71 -56 47 -42 67 -47 82 -20 15 28 2 63
-38 105 -53 56 -113 81 -166 69z"/>
<path d="M946 2935 c-16 -42 108 -278 168 -321 25 -17 78 -18 94 -2 15 15 15
53 1 81 -16 31 -114 153 -168 210 -46 48 -84 61 -95 32z"/>
<path d="M4595 3153 c-81 -85 -105 -125 -88 -152 24 -38 50 -25 115 58 35 44
65 78 67 76 2 -3 -7 -29 -19 -60 -27 -67 -21 -81 14 -28 50 75 70 165 40 177
-37 14 -58 3 -129 -71z"/>
<path d="M2935 1426 c-36 -28 -83 -52 -122 -63 -68 -19 -81 -38 -34 -48 61
-13 184 51 225 117 33 54 9 52 -69 -6z"/>
</g>
</svg>
